<svg id="Capa_1" data-name="Capa 1" xmlns="http://www.w3.org/2000/svg" viewBox="0 0 734.7 734.7"><defs><style>.cls-1,.cls-2,.cls-3,.cls-4,.cls-5{fill:none;}.cls-1,.cls-2{stroke:#211915;}.cls-1,.cls-3,.cls-4,.cls-5{stroke-linecap:round;stroke-linejoin:round;}.cls-1{stroke-width:16.24px;}.cls-2{stroke-miterlimit:10;stroke-width:18px;}.cls-3,.cls-4,.cls-5{stroke:#fff;}.cls-3{stroke-width:19.88px;}.cls-4{stroke-width:15.7px;}.cls-5{stroke-width:15.7px;}.cls-6{fill:#fff;}</style></defs><title>logo</title><path class="cls-1" d="M722.77,117.88" transform="translate(-172.65 -172.65)"/><path class="cls-2" d="M1293.82,338.93" transform="translate(-172.65 -172.65)"/><circle class="cls-3" cx="367.35" cy="367.35" r="357.41"/><path class="cls-4" d="M521.06,857C698.55,857,854,729.89,854,545.43s-155.45-329-332.94-329V808.14" transform="translate(-172.65 -172.65)"/><path class="cls-5" d="M551.93,264.89v546c83.64,0,149-47.41,199.76-108.33" transform="translate(-172.65 -172.65)"/><polyline class="cls-4" points="343.94 384.99 183.1 533.47 346.14 683.89"/><polyline class="cls-4" points="327.43 445.19 236.09 531.47 348.43 637.71"/><polyline class="cls-4" points="381.31 93.72 542.14 242.19 381.31 392.62"/><polyline class="cls-4" points="400.01 153.91 491.36 240.19 400.01 326.43"/><path class="cls-6" d="M294.93,370.84c-.29.37-.43.56-.71.94a5.16,5.16,0,0,1-3.22,1.9,8.63,8.63,0,0,1-3.08-.31,11.37,11.37,0,0,0-2.27-.44,10.39,10.39,0,0,0,.48,3.07,13.29,13.29,0,0,1,.57,3.17,5.57,5.57,0,0,1-.83,3.2l-.15.25c-2.31,3.34-5.61,3.86-10,1.46a22.94,22.94,0,0,1-7-6.25,17.63,17.63,0,0,1-3.17-6.1,7,7,0,0,1,.38-5.48,12.8,12.8,0,0,1,4.42-3.92,1.82,1.82,0,0,1,.48-.37c-1.65-1.79-5.15-5.84-10.31-12.35a2.24,2.24,0,0,1,.08-2.48,5.2,5.2,0,0,1,2.64-2,3.71,3.71,0,0,1,3.27.19,4.53,4.53,0,0,1,1,1c2.42,2.92,5.39,6.35,9,10.16a57.93,57.93,0,0,0,10,8.86,16.52,16.52,0,0,0,5.66,2.65,7.68,7.68,0,0,1,2.61.75C295.49,369.19,295.54,369.9,294.93,370.84Zm-14.92,7a7.86,7.86,0,0,0-1.58-3.41c-2.34-3.3-4.24-5.44-5.75-6.37-.45-.27-.72-.34-.8-.2s-.05.44.12.91a21.27,21.27,0,0,0,3.51,5.37,15,15,0,0,0,3.58,3.43A1.45,1.45,0,0,0,280,377.83Z" transform="translate(-172.65 -172.65)"/><path class="cls-6" d="M308.36,350.09c-.61.77-2.2,1.24-4.81,1.47a2.47,2.47,0,0,0-2.09.83,4.75,4.75,0,0,0-.62,2.61q0,.9-.18,1.8a6.81,6.81,0,0,1-1.3,3.26c-2.24,3.11-5.88,2.94-11-.59a20,20,0,0,1-8.48-11.37c-.68-2.52-.47-4.54.62-6,1.25-1.7,3.55-2.71,6.86-3,.36,0,.57,0,.63-.12s-.12-.49-.45-1.06c-.22-.38-.52-1.13-.92-2.09a2.59,2.59,0,0,1,.46-2.78,3.4,3.4,0,0,1,2.89-1.3,3.35,3.35,0,0,1,2.35.89,7.11,7.11,0,0,1,1.3,1.47,46.21,46.21,0,0,0,8.67,10.12L307,347.3l.61.5C308.67,348.64,308.91,349.41,308.36,350.09Zm-14.05,5c.21-.28.11-1-.28-2.18a48.25,48.25,0,0,0-1.93-4.77,8.57,8.57,0,0,0-2.63-2.85,3.94,3.94,0,0,0-2.28-.93c-.46,1.5.21,3.52,2,6a21.76,21.76,0,0,0,4,4.43C293.8,355.22,294.16,355.33,294.31,355.12Z" transform="translate(-172.65 -172.65)"/><path class="cls-6" d="M318.14,339.09c-1.66,1.86-3.26,3.08-4.69,3.4s-4.25-1.19-8.07-4.42c-1.87-1.58-4.05-3.58-6.51-6A110.87,110.87,0,0,1,286.66,318a13.25,13.25,0,0,1-2.11-3.39,2.86,2.86,0,0,1,.77-3.06c1.62-1.75,3.28-2,4.73-.63a5,5,0,0,1,.8.94,134.07,134.07,0,0,0,8.89,10.89c4.87,5.36,7.93,8.53,9.11,9.58a13.31,13.31,0,0,0,2.7,1.9,3.47,3.47,0,0,0,2.07.49,11.91,11.91,0,0,0,2.51-1.21c.71-.4,1.45-.75,2.09-1.06a1.52,1.52,0,0,1,1.76.18,1.84,1.84,0,0,1,.46,1.83A9.14,9.14,0,0,1,318.14,339.09Z" transform="translate(-172.65 -172.65)"/><path class="cls-6" d="M327.83,328.12c-2.66,2.66-5.57,3.33-8.86,2a13.34,13.34,0,0,1-4.4-2.79,17.61,17.61,0,0,1-4-5.92L310.2,320a15.75,15.75,0,0,1-.31-8.25,10.2,10.2,0,0,1,2.6-4.79c.19-.18.71-.61,1.57-1.26a4.94,4.94,0,0,1,3.78-.66,5.47,5.47,0,0,1,3.22,1.82c3.2,3.44,3.46,7.36,1,11.8a10.74,10.74,0,0,0-1.1,2.62,2.85,2.85,0,0,0,.54,2.51,2.29,2.29,0,0,0,2.27.88,6.57,6.57,0,0,0,2.25-1.12l.42-.21c2-1.19,3.34-1.46,3.9-.87,0,0,.2.22.5.57s-.21,1.43-1.47,3.28A13.31,13.31,0,0,1,327.83,328.12Zm-10.56-12.44a1.72,1.72,0,0,0,.24-.64c.15-1.7-.05-2.84-.62-3.43a.43.43,0,0,0-.69,0l-.31.36c-.17.2-.06,1,.33,2.35.07.14.15.34.26.6a2.58,2.58,0,0,0,.53.75C317.11,315.74,317.2,315.76,317.27,315.68Zm-5.51-11.32a6.72,6.72,0,0,1-1,.79c-1.62.51-2.7.5-3.24,0-.27-.27-.33-.75-.17-1.45.51-2,.5-3.46-.06-4.45-1-1.76-1.08-3.06-.23-3.86a3.64,3.64,0,0,1,3.65-.75,2.87,2.87,0,0,1,1.6.87c1.36,1.49,1.73,3.46,1.14,5.93A5.69,5.69,0,0,1,311.76,304.36Z" transform="translate(-172.65 -172.65)"/><path class="cls-6" d="M340.57,316c-2.46,2.15-4.7,3.17-6.79,3a2.39,2.39,0,0,1-1.51-.76,6.32,6.32,0,0,1-1.32-3.19,57.71,57.71,0,0,1-.62-9.13c0-1.29,0-2.47,0-3.53l.05-2.23s-.09,0-.17.05-.18.22-.31.36c-.32.34-.72.72-1.19,1.13l-.83.73c-2.16,1.89-3.95,2.07-5.4.47-.64-.72-.44-2.21.69-4.38a21.85,21.85,0,0,1,5.32-6.76,9.63,9.63,0,0,1,2.7-1.66c2.11-.48,3.62-.16,4.41.88a7.81,7.81,0,0,1,1.4,3.77,35.57,35.57,0,0,1,.13,8.46.07.07,0,0,1,0,.11c-.26,4.86-.18,7.38,0,7.63s.46.08.92-.31l.73-.64a11.52,11.52,0,0,1,4.76-2.58c1.33-.31,2.31-.12,2.76.44.3.37.28,1-.06,1.91-.27.36-.4.55-.67.92A53.79,53.79,0,0,1,340.57,316Z" transform="translate(-172.65 -172.65)"/><path class="cls-6" d="M365.09,297.28c-1.33.91-3.24.64-5.78-.8a.33.33,0,0,0-.19-.13,17.64,17.64,0,0,0-1.34,2.16,20.67,20.67,0,0,1-1.21,2,8.73,8.73,0,0,1-1.7,1.93c-2.93,2.39-6.62,1.37-10.09-3a34.71,34.71,0,0,1-6-11c-.13-.52-.19-.78-.31-1.31a4.07,4.07,0,0,1,1.39-3.86,4.19,4.19,0,0,1,1.68-.72,2.87,2.87,0,0,1,2.89,1.35,22.74,22.74,0,0,1,2,4,40.21,40.21,0,0,0,4.18,7.57,17.06,17.06,0,0,0,1.54,1.81c.85-2.13.6-6.62-.51-13.58a33.45,33.45,0,0,1-.58-6.53,2.94,2.94,0,0,1,1.26-2.16,4.25,4.25,0,0,1,2.61-.66,3.22,3.22,0,0,1,2.36.89c1,1.33,1.85,4,2.82,6.86A29.29,29.29,0,0,0,363,288.6l1.47,2.06A21.07,21.07,0,0,1,366,293.4a3.57,3.57,0,0,1-.15,3.28Z" transform="translate(-172.65 -172.65)"/><path class="cls-6" d="M379.57,288.53c-2.15,1.28-4.06,2-5.52,1.85s-3.71-2.4-6.39-6.61c-1.31-2.07-2.8-4.64-4.41-7.69a110.19,110.19,0,0,1-7.43-17.1,12.85,12.85,0,0,1-1-3.87,2.88,2.88,0,0,1,1.66-2.69c2.09-1.2,3.74-.9,4.73.8a4.94,4.94,0,0,1,.47,1.14,133.9,133.9,0,0,0,5.22,13.05c3,6.57,5,10.52,5.82,11.88a12.77,12.77,0,0,0,2,2.61,3.33,3.33,0,0,0,1.83,1.08,11.12,11.12,0,0,0,2.77-.41c.8-.17,1.61-.28,2.33-.38a1.52,1.52,0,0,1,1.63.68,1.83,1.83,0,0,1-.12,1.89A9.27,9.27,0,0,1,379.57,288.53Z" transform="translate(-172.65 -172.65)"/><path class="cls-6" d="M388.71,281.29c-2.18,1.17-4.31-.13-6.44-4a28.16,28.16,0,0,1-1.65-3.61c-1.95-4.9-3.11-8.06-3.55-9.39-1-3-.77-5,.86-5.86l.15-.08c2.16-.66,3.82.14,5,2.35a24,24,0,0,1,1.44,3.31c.81,2.39,1.7,4.65,2.64,6.79s1.79,4.29,2.58,6.41C390.43,279.19,390.11,280.54,388.71,281.29Zm-10.86-27c-1.65.86-3.34.14-5.1-2.18-.24-.37-.35-.55-.59-.91a5.27,5.27,0,0,1-.51-1.57c-.11-.62.29-1.29,1.2-2,2.66-.76,4.47-.2,5.41,1.64C379.55,251.81,379.41,253.47,377.85,254.29Z" transform="translate(-172.65 -172.65)"/></svg>